{
	"asset":{
		"generator":"Khronos glTF Blender I/O v3.6.27",
		"version":"2.0"
	},
	"scene":0,
	"scenes":[
		{
			"name":"Scene",
			"nodes":[
				0,
				1,
				2,
				3,
				6,
				7,
				8,
				9,
				10,
				12
			]
		}
	],
	"nodes":[
		{
			"mesh":0,
			"name":"Suzanne",
			"rotation":[
				-0.30070579051971436,
				0,
				0,
				0.9537169933319092
			],
			"translation":[
				0,
				0.5,
				6
			]
		},
		{
			"mesh":1,
			"name":"Suzanne.001",
			"rotation":[
				-0.21263113617897034,
				0.6743797063827515,
				0.21263113617897034,
				0.6743797063827515
			],
			"translation":[
				6,
				0.4999999701976776,
				0
			]
		},
		{
			"mesh":2,
			"name":"Suzanne.002",
			"rotation":[
				0,
				-0.9537169933319092,
				-0.30070579051971436,
				1.5538020647909434e-07
			],
			"translation":[
				0,
				0.4999999403953552,
				-6
			]
		},
		{
			"mesh":3,
			"name":"Suzanne.003",
			"rotation":[
				-0.2126311957836151,
				-0.6743795275688171,
				-0.21263109147548676,
				0.6743798851966858
			],
			"translation":[
				-6,
				0.49999991059303284,
				0
			]
		},
		{
			"camera":0,
			"name":"Camera",
			"rotation":[
				-0.06205231696367264,
				0,
				0,
				0.9980729222297668
			],
			"translation":[
				1.1115208864212036,
				0.9126107096672058,
				13.679927825927734
			]
		},
		{
			"mesh":4,
			"name":"Torus",
			"rotation":[
				0.7071068286895752,
				0,
				0,
				0.7071068286895752
			],
			"scale":[
				0.5180661082267761,
				0.5180661082267761,
				0.5180661082267761
			]
		},
		{
			"children":[
				4,
				5
			],
			"name":"Empty",
			"translation":[
				0,
				0.7525232434272766,
				0
			]
		},
		{
			"mesh":5,
			"name":"Text",
			"rotation":[
				0.7071068286895752,
				0,
				0,
				0.7071068286895752
			],
			"scale":[
				0.6210461854934692,
				0.6210461854934692,
				0.6210461854934692
			],
			"translation":[
				1.3888591527938843,
				0.917772650718689,
				6
			]
		},
		{
			"mesh":6,
			"name":"Text.001",
			"rotation":[
				0.5,
				0.5,
				-0.5,
				0.5
			],
			"scale":[
				0.6210461854934692,
				0.6210461854934692,
				0.6210461854934692
			],
			"translation":[
				6,
				0.9177725911140442,
				-1.3888592720031738
			]
		},
		{
			"mesh":7,
			"name":"Text.002",
			"rotation":[
				0,
				-0.7071068286895752,
				0.7071068286895752,
				1.1520233300643667e-07
			],
			"scale":[
				0.6210461854934692,
				0.6210461854934692,
				0.6210461854934692
			],
			"translation":[
				-1.388859748840332,
				0.9177725315093994,
				-6
			]
		},
		{
			"mesh":8,
			"name":"Text.003",
			"rotation":[
				0.5000001192092896,
				-0.49999988079071045,
				0.49999988079071045,
				0.5000001192092896
			],
			"scale":[
				0.6210461854934692,
				0.6210461854934692,
				0.6210461854934692
			],
			"translation":[
				-6,
				0.9177724719047546,
				1.388859748840332
			]
		},
		{
			"mesh":9,
			"name":"Plane",
			"scale":[
				16,
				16,
				16
			]
		},
		{
			"children":[
				11
			],
			"name":"Floor"
		}
	],
	"cameras":[
		{
			"name":"Camera",
			"perspective":{
				"aspectRatio":1.7777777777777777,
				"yfov":0.39959652046304894,
				"zfar":1000,
				"znear":0.10000000149011612
			},
			"type":"perspective"
		}
	],
	"animations":[
		{
			"channels":[
				{
					"sampler":0,
					"target":{
						"node":6,
						"path":"rotation"
					}
				}
			],
			"name":"EmptyAction",
			"samplers":[
				{
					"input":37,
					"interpolation":"LINEAR",
					"output":38
				}
			]
		}
	],
	"materials":[
		{
			"doubleSided":true,
			"name":"M1",
			"pbrMetallicRoughness":{
				"baseColorFactor":[
					0.8000000715255737,
					0.009506858885288239,
					0,
					1
				],
				"metallicFactor":0,
				"roughnessFactor":0.5
			}
		},
		{
			"doubleSided":true,
			"name":"M2",
			"pbrMetallicRoughness":{
				"baseColorFactor":[
					0.8000000715255737,
					0.34981679916381836,
					0,
					1
				],
				"metallicFactor":0,
				"roughnessFactor":0.5
			}
		},
		{
			"doubleSided":true,
			"name":"M3",
			"pbrMetallicRoughness":{
				"baseColorFactor":[
					0,
					0.23354434967041016,
					0.8000000715255737,
					1
				],
				"metallicFactor":0,
				"roughnessFactor":0.5
			}
		},
		{
			"doubleSided":true,
			"name":"M4",
			"pbrMetallicRoughness":{
				"baseColorFactor":[
					0.20309750735759735,
					0.012678678147494793,
					0.8000000715255737,
					1
				],
				"metallicFactor":0,
				"roughnessFactor":0.5
			}
		},
		{
			"doubleSided":true,
			"name":"Floor",
			"pbrMetallicRoughness":{
				"baseColorFactor":[
					0.07035687565803528,
					0.07035687565803528,
					0.07035687565803528,
					1
				],
				"metallicFactor":0
			}
		}
	],
	"meshes":[
		{
			"name":"Suzanne",
			"primitives":[
				{
					"attributes":{
						"POSITION":0,
						"NORMAL":1,
						"TEXCOORD_0":2
					},
					"indices":3,
					"material":0
				}
			]
		},
		{
			"name":"Suzanne.001",
			"primitives":[
				{
					"attributes":{
						"POSITION":4,
						"NORMAL":5,
						"TEXCOORD_0":6
					},
					"indices":3,
					"material":1
				}
			]
		},
		{
			"name":"Suzanne.002",
			"primitives":[
				{
					"attributes":{
						"POSITION":7,
						"NORMAL":8,
						"TEXCOORD_0":9
					},
					"indices":3,
					"material":2
				}
			]
		},
		{
			"name":"Suzanne.003",
			"primitives":[
				{
					"attributes":{
						"POSITION":10,
						"NORMAL":11,
						"TEXCOORD_0":12
					},
					"indices":3,
					"material":3
				}
			]
		},
		{
			"name":"Torus",
			"primitives":[
				{
					"attributes":{
						"POSITION":13,
						"NORMAL":14,
						"TEXCOORD_0":15
					},
					"indices":16
				}
			]
		},
		{
			"name":"Text",
			"primitives":[
				{
					"attributes":{
						"POSITION":17,
						"NORMAL":18,
						"TEXCOORD_0":19
					},
					"indices":20,
					"material":0
				}
			]
		},
		{
			"name":"Text.001",
			"primitives":[
				{
					"attributes":{
						"POSITION":21,
						"NORMAL":22,
						"TEXCOORD_0":23
					},
					"indices":24,
					"material":1
				}
			]
		},
		{
			"name":"Text.002",
			"primitives":[
				{
					"attributes":{
						"POSITION":25,
						"NORMAL":26,
						"TEXCOORD_0":27
					},
					"indices":28,
					"material":2
				}
			]
		},
		{
			"name":"Text.003",
			"primitives":[
				{
					"attributes":{
						"POSITION":29,
						"NORMAL":30,
						"TEXCOORD_0":31
					},
					"indices":32,
					"material":3
				}
			]
		},
		{
			"name":"Plane",
			"primitives":[
				{
					"attributes":{
						"POSITION":33,
						"NORMAL":34,
						"TEXCOORD_0":35
					},
					"indices":36,
					"material":4
				}
			]
		}
	],
	"accessors":[
		{
			"bufferView":0,
			"componentType":5126,
			"count":1966,
			"max":[
				1.3671875,
				0.984375,
				0.8515625
			],
			"min":[
				-1.3671875,
				-0.984375,
				-0.8515625
			],
			"type":"VEC3"
		},
		{
			"bufferView":1,
			"componentType":5126,
			"count":1966,
			"type":"VEC3"
		},
		{
			"bufferView":2,
			"componentType":5126,
			"count":1966,
			"type":"VEC2"
		},
		{
			"bufferView":3,
			"componentType":5123,
			"count":2904,
			"type":"SCALAR"
		},
		{
			"bufferView":4,
			"componentType":5126,
			"count":1966,
			"max":[
				1.3671875,
				0.984375,
				0.8515625
			],
			"min":[
				-1.3671875,
				-0.984375,
				-0.8515625
			],
			"type":"VEC3"
		},
		{
			"bufferView":5,
			"componentType":5126,
			"count":1966,
			"type":"VEC3"
		},
		{
			"bufferView":6,
			"componentType":5126,
			"count":1966,
			"type":"VEC2"
		},
		{
			"bufferView":7,
			"componentType":5126,
			"count":1966,
			"max":[
				1.3671875,
				0.984375,
				0.8515625
			],
			"min":[
				-1.3671875,
				-0.984375,
				-0.8515625
			],
			"type":"VEC3"
		},
		{
			"bufferView":8,
			"componentType":5126,
			"count":1966,
			"type":"VEC3"
		},
		{
			"bufferView":9,
			"componentType":5126,
			"count":1966,
			"type":"VEC2"
		},
		{
			"bufferView":10,
			"componentType":5126,
			"count":1966,
			"max":[
				1.3671875,
				0.984375,
				0.8515625
			],
			"min":[
				-1.3671875,
				-0.984375,
				-0.8515625
			],
			"type":"VEC3"
		},
		{
			"bufferView":11,
			"componentType":5126,
			"count":1966,
			"type":"VEC3"
		},
		{
			"bufferView":12,
			"componentType":5126,
			"count":1966,
			"type":"VEC2"
		},
		{
			"bufferView":13,
			"componentType":5126,
			"count":2304,
			"max":[
				1.25,
				0.25,
				1.25
			],
			"min":[
				-1.25,
				-0.25,
				-1.25
			],
			"type":"VEC3"
		},
		{
			"bufferView":14,
			"componentType":5126,
			"count":2304,
			"type":"VEC3"
		},
		{
			"bufferView":15,
			"componentType":5126,
			"count":2304,
			"type":"VEC2"
		},
		{
			"bufferView":16,
			"componentType":5123,
			"count":3456,
			"type":"SCALAR"
		},
		{
			"bufferView":17,
			"componentType":5126,
			"count":149,
			"max":[
				3.201308012008667,
				0,
				0.011627906933426857
			],
			"min":[
				0.04142441973090172,
				0,
				-0.520348846912384
			],
			"type":"VEC3"
		},
		{
			"bufferView":18,
			"componentType":5126,
			"count":149,
			"type":"VEC3"
		},
		{
			"bufferView":19,
			"componentType":5126,
			"count":149,
			"type":"VEC2"
		},
		{
			"bufferView":20,
			"componentType":5123,
			"count":417,
			"type":"SCALAR"
		},
		{
			"bufferView":21,
			"componentType":5126,
			"count":222,
			"max":[
				3.3670058250427246,
				0,
				0.011627906933426857
			],
			"min":[
				0.04142441973090172,
				0,
				-0.520348846912384
			],
			"type":"VEC3"
		},
		{
			"bufferView":22,
			"componentType":5126,
			"count":222,
			"type":"VEC3"
		},
		{
			"bufferView":23,
			"componentType":5126,
			"count":222,
			"type":"VEC2"
		},
		{
			"bufferView":24,
			"componentType":5123,
			"count":636,
			"type":"SCALAR"
		},
		{
			"bufferView":25,
			"componentType":5126,
			"count":224,
			"max":[
				3.367732524871826,
				0,
				0.011627906933426857
			],
			"min":[
				0.04142441973090172,
				0,
				-0.520348846912384
			],
			"type":"VEC3"
		},
		{
			"bufferView":26,
			"componentType":5126,
			"count":224,
			"type":"VEC3"
		},
		{
			"bufferView":27,
			"componentType":5126,
			"count":224,
			"type":"VEC2"
		},
		{
			"bufferView":28,
			"componentType":5123,
			"count":642,
			"type":"SCALAR"
		},
		{
			"bufferView":29,
			"componentType":5126,
			"count":158,
			"max":[
				3.453488349914551,
				0,
				0.011627906933426857
			],
			"min":[
				0.04142441973090172,
				0,
				-0.520348846912384
			],
			"type":"VEC3"
		},
		{
			"bufferView":30,
			"componentType":5126,
			"count":158,
			"type":"VEC3"
		},
		{
			"bufferView":31,
			"componentType":5126,
			"count":158,
			"type":"VEC2"
		},
		{
			"bufferView":32,
			"componentType":5123,
			"count":444,
			"type":"SCALAR"
		},
		{
			"bufferView":33,
			"componentType":5126,
			"count":224,
			"max":[
				1,
				0.4375,
				1
			],
			"min":[
				-1,
				0,
				-1
			],
			"type":"VEC3"
		},
		{
			"bufferView":34,
			"componentType":5126,
			"count":224,
			"type":"VEC3"
		},
		{
			"bufferView":35,
			"componentType":5126,
			"count":224,
			"type":"VEC2"
		},
		{
			"bufferView":36,
			"componentType":5123,
			"count":1242,
			"type":"SCALAR"
		},
		{
			"bufferView":37,
			"componentType":5126,
			"count":201,
			"max":[
				8.333333333333334
			],
			"min":[
				0
			],
			"type":"SCALAR"
		},
		{
			"bufferView":38,
			"componentType":5126,
			"count":201,
			"type":"VEC4"
		}
	],
	"bufferViews":[
		{
			"buffer":0,
			"byteLength":23592,
			"byteOffset":0,
			"target":34962
		},
		{
			"buffer":0,
			"byteLength":23592,
			"byteOffset":23592,
			"target":34962
		},
		{
			"buffer":0,
			"byteLength":15728,
			"byteOffset":47184,
			"target":34962
		},
		{
			"buffer":0,
			"byteLength":5808,
			"byteOffset":62912,
			"target":34963
		},
		{
			"buffer":0,
			"byteLength":23592,
			"byteOffset":68720,
			"target":34962
		},
		{
			"buffer":0,
			"byteLength":23592,
			"byteOffset":92312,
			"target":34962
		},
		{
			"buffer":0,
			"byteLength":15728,
			"byteOffset":115904,
			"target":34962
		},
		{
			"buffer":0,
			"byteLength":23592,
			"byteOffset":131632,
			"target":34962
		},
		{
			"buffer":0,
			"byteLength":23592,
			"byteOffset":155224,
			"target":34962
		},
		{
			"buffer":0,
			"byteLength":15728,
			"byteOffset":178816,
			"target":34962
		},
		{
			"buffer":0,
			"byteLength":23592,
			"byteOffset":194544,
			"target":34962
		},
		{
			"buffer":0,
			"byteLength":23592,
			"byteOffset":218136,
			"target":34962
		},
		{
			"buffer":0,
			"byteLength":15728,
			"byteOffset":241728,
			"target":34962
		},
		{
			"buffer":0,
			"byteLength":27648,
			"byteOffset":257456,
			"target":34962
		},
		{
			"buffer":0,
			"byteLength":27648,
			"byteOffset":285104,
			"target":34962
		},
		{
			"buffer":0,
			"byteLength":18432,
			"byteOffset":312752,
			"target":34962
		},
		{
			"buffer":0,
			"byteLength":6912,
			"byteOffset":331184,
			"target":34963
		},
		{
			"buffer":0,
			"byteLength":1788,
			"byteOffset":338096,
			"target":34962
		},
		{
			"buffer":0,
			"byteLength":1788,
			"byteOffset":339884,
			"target":34962
		},
		{
			"buffer":0,
			"byteLength":1192,
			"byteOffset":341672,
			"target":34962
		},
		{
			"buffer":0,
			"byteLength":834,
			"byteOffset":342864,
			"target":34963
		},
		{
			"buffer":0,
			"byteLength":2664,
			"byteOffset":343700,
			"target":34962
		},
		{
			"buffer":0,
			"byteLength":2664,
			"byteOffset":346364,
			"target":34962
		},
		{
			"buffer":0,
			"byteLength":1776,
			"byteOffset":349028,
			"target":34962
		},
		{
			"buffer":0,
			"byteLength":1272,
			"byteOffset":350804,
			"target":34963
		},
		{
			"buffer":0,
			"byteLength":2688,
			"byteOffset":352076,
			"target":34962
		},
		{
			"buffer":0,
			"byteLength":2688,
			"byteOffset":354764,
			"target":34962
		},
		{
			"buffer":0,
			"byteLength":1792,
			"byteOffset":357452,
			"target":34962
		},
		{
			"buffer":0,
			"byteLength":1284,
			"byteOffset":359244,
			"target":34963
		},
		{
			"buffer":0,
			"byteLength":1896,
			"byteOffset":360528,
			"target":34962
		},
		{
			"buffer":0,
			"byteLength":1896,
			"byteOffset":362424,
			"target":34962
		},
		{
			"buffer":0,
			"byteLength":1264,
			"byteOffset":364320,
			"target":34962
		},
		{
			"buffer":0,
			"byteLength":888,
			"byteOffset":365584,
			"target":34963
		},
		{
			"buffer":0,
			"byteLength":2688,
			"byteOffset":366472,
			"target":34962
		},
		{
			"buffer":0,
			"byteLength":2688,
			"byteOffset":369160,
			"target":34962
		},
		{
			"buffer":0,
			"byteLength":1792,
			"byteOffset":371848,
			"target":34962
		},
		{
			"buffer":0,
			"byteLength":2484,
			"byteOffset":373640,
			"target":34963
		},
		{
			"buffer":0,
			"byteLength":804,
			"byteOffset":376124
		},
		{
			"buffer":0,
			"byteLength":3216,
			"byteOffset":376928
		}
	],
	"buffers":[
		{
			"byteLength":380144,
			"uri":"data:application/octet-stream;base64,"
		}
	]
}
